<?xml version="1.0" encoding="UTF-8" standalone="no"?>
<!DOCTYPE svg PUBLIC "-//W3C//DTD SVG 1.1//EN" "http://www.w3.org/Graphics/SVG/1.1/DTD/svg11.dtd">
<svg width="100%" height="100%" viewBox="0 0 1491 458" version="1.1" xmlns="http://www.w3.org/2000/svg" xmlns:xlink="http://www.w3.org/1999/xlink" xml:space="preserve" xmlns:serif="http://www.serif.com/" style="fill-rule:evenodd;clip-rule:evenodd;stroke-linejoin:round;stroke-miterlimit:2;">
    <g transform="matrix(1,0,0,1,-10944.476562,-618.743305)">
        <g transform="matrix(4.166667,0,0,4.166667,10180.026563,0)">
            <g transform="matrix(1,0,0,1,339.244,172.381)">
                <path d="M0,84.586L0,10.706C8.588,7.027 40.667,-0.081 48.384,13.726C51.672,19.617 50.85,22.107 50.85,81.643C50.85,84.566 50.023,84.586 32.823,84.586C32.823,26.554 33.25,25.012 31.547,21.703C29.61,17.941 21.154,18.968 17.347,21.393L17.347,81.643C17.347,84.667 16.35,84.586 0,84.586" style="fill:white;fill-rule:nonzero;"/>
            </g>
        </g>
        <g transform="matrix(4.166667,0,0,4.166667,10180.026563,0)">
            <g transform="matrix(1,0,0,1,402.1821,243.3247)">
                <path d="M0,-63.348C2.974,-68.94 13.203,-68.8 17.457,-65.608C16.664,-63.793 11.564,-34.387 32.813,-32.401L32.718,-77.208C46.739,-77.208 50.186,-77.168 50.186,-70.238L50.186,13.632C32.97,13.632 32.718,13.604 32.718,10.692L32.718,-18.428C30.082,-20.103 23.505,-24.064 19.742,-16.958C15.429,-8.762 16.541,5.792 17.115,13.632C-0.722,13.632 -1.159,13.86 -1.553,11.002C-3.742,-6.819 -0.272,-22.081 10.67,-28.488C5.262,-33.473 -2.875,-41.11 0,-63.348" style="fill:white;fill-rule:nonzero;"/>
            </g>
        </g>
        <g transform="matrix(4.166667,0,0,4.166667,10180.026563,0)">
            <g transform="matrix(1,0,0,1,471.1152,145.3902)">
                <path d="M0,25.954C-7.229,25.954 -8.522,20.632 -8.522,14.338C-8.522,0 5.327,2.316 7.67,5.51C9.807,8.427 12.062,25.954 0,25.954" style="fill:white;fill-rule:nonzero;"/>
            </g>
        </g>
        <g transform="matrix(4.166667,0,0,4.166667,10180.026563,0)">
            <g transform="matrix(0,-1,-1,0,510.1892,227.0556)">
                <path d="M-29.876,47.596L40.597,47.596C47.596,47.596 47.566,43.742 47.566,29.877L-26.933,29.877C-29.848,29.877 -29.876,30.404 -29.876,47.596" style="fill:white;fill-rule:nonzero;"/>
            </g>
        </g>
        <g transform="matrix(4.166667,0,0,4.166667,10180.026563,0)">
            <g transform="matrix(1,0,0,1,186.711,256.9564)">
                <path d="M0,-108.419C-1.48,-108.419 -2.56,-107.437 -3.243,-105.477L-3.243,0L11.266,0C12.859,0 13.827,-0.98 14.168,-2.943L14.168,-51.577L33.287,-51.577C36.71,-51.577 36.359,-55.293 36.359,-65.981L14.168,-65.981L14.168,-93.944L45.991,-93.944C49.453,-93.944 49.063,-95.482 49.063,-108.419L0,-108.419Z" style="fill:white;fill-rule:nonzero;"/>
            </g>
        </g>
        <g transform="matrix(4.166667,0,0,4.166667,10180.026563,0)">
            <g transform="matrix(1,0,0,1,234.2381,176.5468)">
                <path d="M0,80.427L0,8.406C13.254,-0.07 28.967,0.44 32.693,3.217C37.367,6.715 33.909,16.448 33.204,18.009C27.89,15.597 21.753,16.518 17.879,19.403L17.709,77.484C17.709,80.497 16.751,80.427 0,80.427" style="fill:white;fill-rule:nonzero;"/>
            </g>
        </g>
        <g transform="matrix(4.166667,0,0,4.166667,10180.026563,0)">
            <g transform="matrix(1,0,0,1,306.8962,191.4154)">
                <path d="M0,49.961C-0.279,54.632 -6.953,54.374 -9.328,53.431C-13.977,51.604 -13.414,42.81 -13.414,42.511C-13.414,35.152 -11.845,30.918 -8.478,29.731C-5.727,28.761 -1.554,29.173 0.363,30.431C0.363,38.079 0.435,43.199 0,49.961M26.078,53.429C9.31,38.187 24.68,0.734 12.774,-9.379C3.747,-17.02 -23.668,-12.621 -29.225,-9.219C-33.038,-6.335 -31.138,1.505 -29.053,5.031C-23.291,3.055 -3.877,-1.309 -0.487,4.491C0.56,6.312 0.363,7.524 0.363,19.741C-3.383,17.548 -17.79,15.248 -25.234,22.221C-34.201,30.62 -31.72,50.778 -29.654,55.831C-26.511,63.521 -20.507,66.981 -7.457,66.981C4.892,66.981 9.48,64.912 12.155,62.725C14.462,65.115 15.414,65.759 17.578,65.524C22.313,65.056 28.574,55.698 26.078,53.429" style="fill:white;fill-rule:nonzero;"/>
            </g>
        </g>
        <g transform="matrix(4.166667,0,0,4.166667,10180.026563,0)">
            <g transform="matrix(1,0,0,1,508.6307,199.322)">
                <path d="M0,40.979C-1.031,39.27 -0.913,38.096 -0.894,27.859L-0.897,27.859C-0.897,4.619 -0.95,2.013 -0.511,-4.491C-0.219,-9.162 6.789,-8.904 9.282,-7.961C14.164,-6.134 13.573,2.66 13.573,2.959C13.573,11.992 11.453,17.306 2.655,16.13C2.655,21.385 1.941,27.127 7.17,27.734C41.046,31.67 31.799,-7.622 30.624,-10.361C27.323,-18.051 21.02,-21.511 7.318,-21.511C1.844,-21.511 -3.057,-21.021 -7.408,-20.041C-16.68,-17.721 -18.7,-9.832 -18.825,-6.221C-19.173,3.836 -19.106,16.95 -19.106,40.129C-19.106,47.149 -17.372,52.059 -13.924,54.849C-4.445,62.49 24.338,58.091 30.173,54.689C34.176,51.805 32.182,43.965 29.992,40.439C23.943,42.415 3.56,46.779 0,40.979" style="fill:white;fill-rule:nonzero;"/>
            </g>
        </g>
    </g>
</svg>
